<?xml version="1.0" encoding="utf-8"?>
<!-- Generator: Adobe Illustrator 19.0.1, SVG Export Plug-In . SVG Version: 6.00 Build 0)  -->
<!DOCTYPE svg PUBLIC "-//W3C//DTD SVG 1.1//EN" "http://www.w3.org/Graphics/SVG/1.1/DTD/svg11.dtd">
<svg version="1.1" id="レイヤー_1" xmlns="http://www.w3.org/2000/svg" xmlns:xlink="http://www.w3.org/1999/xlink" x="0px"
	 y="0px" viewBox="0 0 160 160" enable-background="new 0 0 160 160" xml:space="preserve">
<path fill="#FFFFFF" d="M15.6,42c0,0.1,0,0.2,0,0.2c0.9,4.3,1.9,8.5,2.8,12.8c2.8,12.8,5.6,25.5,8.4,38.3
	c2.4,11.1,4.9,22.1,7.3,33.2c0.8,3.8,1.8,7.6,2.5,11.4c0.3,1.3,0.8,2.3,1.7,3.1c1.7,1.5,3.8,2.4,6,3.2c4.7,1.7,9.5,2.7,14.4,3.2
	c5,0.6,9.9,1.1,14.9,1.3c7.7,0.3,15.3,0.2,22.9-0.7c4.6-0.5,9.2-1.1,13.6-2.2c3.4-0.8,6.8-1.8,9.9-3.6c1.8-1,3.2-2.2,3.6-4.5
	c0.9-5,2.1-9.9,3.2-14.9c2.6-11.8,5.2-23.6,7.8-35.4c3.1-13.9,6.1-27.8,9.2-41.7c0.3-1.3,0.6-2.6,0.9-4c-2,2.3-3.4,3.3-6.1,4.6
	c-5.4,2.6-11.1,4.1-16.9,5.3c-6.7,1.4-13.5,2.4-20.4,2.8c-5,0.3-10,0.7-15.1,0.9c-4.6,0.1-9.3,0-13.9-0.1c-4.5-0.1-9-0.4-13.5-0.8
	c-4.5-0.4-8.9-0.9-13.4-1.6c-5.9-0.8-11.8-2.1-17.5-4C23.4,47.6,18.9,45.9,15.6,42z"/>
<path fill="#FFFFFF" d="M80.9,48.7c3.7-0.1,8.1-0.2,12.5-0.4c5.4-0.3,10.7-0.9,16.1-1.4c5.2-0.5,10.3-1.4,15.4-2.6
	c4.7-1.1,9.4-2.5,13.8-4.7c2.1-1,4-2.2,5.5-4c1.6-2.1,1.6-4.2,0-6.3c-1.5-1.9-3.7-3.1-5.8-4.2c-4.3-2.1-8.8-3.4-13.4-4.5
	c-7.4-1.7-14.9-2.8-22.4-3.4c-4.7-0.4-9.3-0.8-14-0.9C78.8,16,69.1,16.1,59.4,17c-3.5,0.3-7.1,0.6-10.6,1.2
	c-5.1,0.8-10.2,1.8-15.2,2.9c-4.7,1.1-9.3,2.6-13.5,5c-1.6,0.9-3,1.9-4.1,3.4c-1.3,1.8-1.4,3.9,0,5.7c0.5,0.6,1,1.2,1.6,1.7
	c2.1,1.8,4.7,3,7.2,4c5.1,2,10.4,3.4,15.8,4.3c5.2,0.9,10.5,1.6,15.8,2.2c3.9,0.4,7.8,0.7,11.7,0.9C72.1,48.6,76.1,48.6,80.9,48.7z"
	/>
<path d="M15.6,42c3.3,3.9,7.8,5.5,12.4,7.1c5.7,1.9,11.6,3.1,17.5,4c4.4,0.6,8.9,1.2,13.4,1.6c4.5,0.4,9,0.6,13.5,0.8
	c4.6,0.1,9.3,0.2,13.9,0.1c5-0.1,10-0.5,15.1-0.9c6.9-0.5,13.7-1.4,20.4-2.8c5.8-1.2,11.5-2.7,16.9-5.3c2.7-1.3,4.1-2.4,6.1-4.6
	c-0.3,1.4-0.6,2.7-0.9,4c-3.1,13.9-6.1,27.8-9.2,41.7c-2.6,11.8-5.2,23.6-7.8,35.4c-1.1,5-2.3,9.9-3.2,14.9
	c-0.4,2.3-1.9,3.5-3.6,4.5c-3.1,1.8-6.5,2.7-9.9,3.6c-4.5,1.1-9.1,1.7-13.6,2.2c-7.6,0.8-15.3,1-22.9,0.7c-5-0.2-10-0.8-14.9-1.3
	c-4.9-0.5-9.7-1.6-14.4-3.2c-2.1-0.8-4.2-1.6-6-3.2c-1-0.8-1.5-1.8-1.7-3.1c-0.7-3.8-1.7-7.6-2.5-11.4c-2.4-11.1-4.9-22.1-7.3-33.2
	C24,80.6,21.2,67.8,18.4,55c-0.9-4.3-1.9-8.5-2.8-12.8C15.6,42.2,15.6,42.1,15.6,42z M78.7,94.3c4.2,0,8.4,0,12.6,0
	c0.7,0,1-0.2,1-0.9c0-8.3,0-16.7,0-25c0-0.7-0.2-0.9-0.9-0.9c-8.4,0-16.8,0-25.1,0c-0.7,0-0.9,0.2-0.9,0.9c0,8.4,0,16.7,0,25.1
	c0,0.7,0.3,0.9,0.9,0.9C70.4,94.3,74.5,94.3,78.7,94.3z M57,133.4c7.1,0,13.3-5.6,13.3-13.3c0-7.9-6.5-13.2-13.2-13.2
	c-6.8,0-13.4,5.3-13.4,13.3C43.8,127.8,49.9,133.3,57,133.4z M86.7,133c9,0,17.7,0,26.7,0c-4.5-8.3-8.8-16.4-13.3-24.8
	C95.6,116.5,91.2,124.7,86.7,133z"/>
<path d="M80.9,48.7c-4.8-0.1-8.8-0.1-12.9-0.3c-3.9-0.2-7.8-0.5-11.7-0.9c-5.3-0.6-10.5-1.3-15.8-2.2C35.2,44.4,29.9,43,24.8,41
	c-2.6-1-5.1-2.2-7.2-4c-0.6-0.5-1.2-1.1-1.6-1.7c-1.4-1.8-1.3-3.9,0-5.7c1.1-1.5,2.6-2.5,4.1-3.4c4.2-2.4,8.8-4,13.5-5
	c5-1.1,10.1-2.1,15.2-2.9c3.5-0.6,7.1-0.8,10.6-1.2c9.7-0.9,19.4-1,29.1-0.7c4.7,0.1,9.3,0.5,14,0.9c7.5,0.6,15,1.7,22.4,3.4
	c4.6,1.1,9.1,2.4,13.4,4.5c2.2,1.1,4.3,2.3,5.8,4.2c1.7,2.1,1.7,4.2,0,6.3c-1.5,1.8-3.4,3-5.5,4c-4.4,2.2-9.1,3.5-13.8,4.7
	c-5.1,1.2-10.2,2.1-15.4,2.6c-5.4,0.5-10.7,1-16.1,1.4C89,48.5,84.6,48.6,80.9,48.7z"/>
<path fill="#FFFFFF" d="M78.7,94.3c-4.2,0-8.3,0-12.5,0c-0.7,0-0.9-0.1-0.9-0.9c0-8.4,0-16.7,0-25.1c0-0.7,0.2-0.9,0.9-0.9
	c8.4,0,16.8,0,25.1,0c0.7,0,0.9,0.2,0.9,0.9c0,8.3,0,16.7,0,25c0,0.7-0.2,1-1,0.9C87.1,94.3,82.9,94.3,78.7,94.3z"/>
<path fill="#FFFFFF" d="M57,133.4c-7-0.1-13.2-5.6-13.2-13.3c0-8,6.6-13.3,13.4-13.3c6.6,0,13.2,5.3,13.2,13.2
	C70.3,127.8,64.1,133.3,57,133.4z"/>
<path fill="#FFFFFF" d="M86.7,133c4.5-8.3,8.8-16.4,13.3-24.8c4.5,8.4,8.9,16.5,13.3,24.8C104.5,133,95.7,133,86.7,133z"/>
</svg>
